<?xml version="1.0" standalone="no"?>
<!DOCTYPE svg PUBLIC "-//W3C//DTD SVG 20010904//EN"
 "http://www.w3.org/TR/2001/REC-SVG-20010904/DTD/svg10.dtd">
<svg version="1.0" xmlns="http://www.w3.org/2000/svg"
 width="1024.000000pt" height="1024.000000pt" viewBox="0 0 1024.000000 1024.000000"
 preserveAspectRatio="xMidYMid meet">
<metadata>
Created by potrace 1.14, written by Peter Selinger 2001-2017
</metadata>
<g transform="translate(0.000000,1024.000000) scale(0.100000,-0.100000)"
fill="#000000" stroke="none">
<path d="M2853 8797 c-12 -5 -23 -17 -25 -26 -2 -9 -4 -148 -3 -308 l0 -293
-100 -1 c-55 0 -204 0 -332 0 -170 0 -234 -3 -241 -12 -17 -22 -20 -56 -7 -74
12 -16 39 -18 337 -18 177 0 328 -3 333 -7 7 -4 10 -977 10 -2895 l0 -2888
-315 -2 c-173 -1 -321 -2 -327 -2 -7 -1 -20 -12 -29 -26 -15 -23 -15 -27 0
-50 l16 -25 325 0 c253 0 325 -3 326 -12 1 -7 2 -494 3 -1083 l1 -1070 52 -3
52 -3 1 1053 c0 579 0 1068 0 1086 l0 32 2225 0 c1224 0 2226 -3 2226 -7 1 -5
2 -155 3 -334 1 -349 3 -359 52 -359 51 0 55 17 54 214 -1 99 -1 250 -1 334
l1 152 328 0 c314 0 330 1 347 20 22 25 13 66 -18 76 -12 4 -165 7 -339 7
l-318 -1 0 32 c-4 652 -3 5756 0 5757 3 1 359 2 792 3 507 1 790 5 796 11 22
23 23 54 3 74 -19 19 -35 20 -688 20 -367 0 -722 0 -788 1 l-120 0 2 295 c2
319 1 325 -51 325 -49 0 -51 -12 -52 -324 -1 -160 -2 -293 -3 -296 -1 -4
-4223 -4 -4426 -1 l-30 1 3 287 c1 159 0 297 -3 309 -6 28 -44 44 -72 31z
m2080 -737 c3 -3 -11 -6 -30 -7 -180 -10 -527 -100 -710 -184 -35 -16 -65 -29
-67 -29 -3 0 -57 -30 -120 -66 -400 -226 -695 -566 -871 -1004 -36 -90 -88
-246 -100 -300 -35 -153 -47 -217 -64 -330 -11 -74 -23 -178 -27 -230 -3 -52
-8 -97 -10 -99 -2 -2 -4 63 -4 145 0 141 0 1811 0 2014 l0 95 999 0 c550 0
1002 -2 1004 -5z m2444 -3 c10 -11 11 -2237 1 -2237 -5 0 -8 17 -9 38 0 20 -2
53 -5 72 -2 19 -9 78 -15 130 -34 302 -125 623 -246 865 -268 539 -727 905
-1333 1064 -144 37 -366 74 -384 63 -5 -3 -7 -1 -3 4 7 12 1982 12 1994 1z
m-2075 -681 c135 -10 344 -55 443 -96 11 -4 49 -20 85 -34 151 -62 332 -187
443 -306 199 -214 324 -495 382 -855 16 -105 24 -169 30 -245 2 -30 7 -98 11
-150 8 -108 12 -3397 4 -3409 -3 -5 -700 -8 -1550 -7 l-1545 1 0 1635 c0 1420
4 1840 19 1950 2 14 7 56 11 95 4 38 8 72 10 75 1 3 6 30 9 61 22 194 117 463
227 649 78 131 235 292 375 386 159 106 399 200 589 230 21 3 47 7 59 10 11 2
55 7 96 10 41 4 76 7 77 8 4 3 147 -2 225 -8z m2084 -1606 c0 -22 -1 -38 -4
-35 -8 8 -11 75 -3 75 4 0 7 -18 7 -40z"/>
</g>
</svg>
