<?xml version="1.0" standalone="no"?>
<!DOCTYPE svg PUBLIC "-//W3C//DTD SVG 20010904//EN"
 "http://www.w3.org/TR/2001/REC-SVG-20010904/DTD/svg10.dtd">
<svg version="1.0" xmlns="http://www.w3.org/2000/svg"
 width="700.000000pt" height="700.000000pt" viewBox="0 0 700.000000 700.000000"
 preserveAspectRatio="xMidYMid meet">
<metadata>
Created by potrace 1.14, written by Peter Selinger 2001-2017
</metadata>
<g transform="translate(0.000000,700.000000) scale(0.100000,-0.100000)"
fill="#000000" stroke="none">
<path d="M3404 5349 c-310 -37 -590 -279 -663 -574 -7 -27 -15 -59 -18 -70 -9
-39 -11 -201 -3 -250 16 -88 20 -105 42 -163 160 -429 656 -631 1073 -437 207
96 368 290 426 511 111 426 -146 859 -571 964 -86 22 -198 29 -286 19z"/>
<path d="M2148 3215 c-2 -2 -22 -7 -44 -11 -118 -19 -286 -109 -389 -209 -90
-87 -188 -256 -209 -357 -22 -109 -26 -148 -22 -243 7 -199 80 -367 218 -508
103 -104 186 -156 320 -201 366 -123 771 45 948 393 153 300 95 665 -143 906
-100 101 -243 185 -353 209 -16 4 -40 9 -54 12 -31 8 -265 16 -272 9z"/>
<path d="M4570 3204 c-280 -60 -505 -266 -589 -539 -30 -94 -35 -134 -34 -242
1 -100 22 -211 55 -282 42 -95 51 -111 82 -155 133 -187 332 -307 552 -334
400 -47 758 199 860 592 28 109 28 281 0 385 -80 295 -300 504 -607 577 -54
13 -256 12 -319 -2z"/>
</g>
</svg>
