<?xml version="1.0" encoding="utf-8"?>
<!-- Generator: Adobe Illustrator 27.0.0, SVG Export Plug-In . SVG Version: 6.00 Build 0)  -->
<svg version="1.1" id="Layer_1" xmlns="http://www.w3.org/2000/svg" xmlns:xlink="http://www.w3.org/1999/xlink" x="0px" y="0px"
	 viewBox="0 0 797.6 281.7" style="enable-background:new 0 0 797.6 281.7;" xml:space="preserve">
<style type="text/css">
	.st0{fill:#FFFFFF;}
</style>
<g>
	<path class="st0" d="M144.6,63.7H112v-12c0-0.6-0.5-1.1-1.1-1.1s-1.1,0.5-1.1,1.1v12H16.5V51.5c0-0.6-0.5-1.1-1.1-1.1
		s-1.1,0.5-1.1,1.1v12.3H1.1c-0.6,0-1.1,0.5-1.1,1.1S0.5,66,1.1,66h13.4v121.3H1.2c-0.6,0-1.1,0.5-1.1,1.1s0.5,1.1,1.1,1.1h13.2
		v91.4c0,0.6,0.5,1.1,1.1,1.1s1.1-0.5,1.1-1.1v-91.4H110v13.6c0,0.6,0.5,1.1,1.1,1.1s1.1-0.5,1.1-1.1v-13.6h13.4
		c0.6,0,1.1-0.5,1.1-1.1s-0.5-1.1-1.1-1.1H112V65.8h32.6c0.6,0,1.1-0.5,1.1-1.1S145.2,63.7,144.6,63.7z M62.8,80.1h0.3h0.3
		c0,0,4.2-0.1,9.3,1.3c6.5,1.8,11.7,5.1,15.4,9.9c6.2,8,7.4,18.4,7.4,32.5v63.4h-65v-63.4c0-14.1,1.2-24.5,7.4-32.5
		c3.7-4.8,8.9-8.1,15.4-9.9C58.7,80,62.8,80.1,62.8,80.1z M109.9,187.1L109.9,187.1v-63.4c0-13.4-0.8-28.8-10.4-41.2
		C86.6,65.9,66.2,65.8,63.2,65.9c-3.1-0.1-23.5,0-36.3,16.7c-8.2,10.6-10,23.4-10.3,35.3v-52H110L109.9,187.1L109.9,187.1z"/>
	<g>
		<path class="st0" d="M517.8,102.4c-23.6,0-42.8,19.2-42.8,42.8s19.2,42.8,42.8,42.8c2.4,0,4.3-1.9,4.3-4.3s-1.9-4.3-4.3-4.3
			c-18.9,0-34.3-15.4-34.3-34.3s15.4-34.3,34.3-34.3c18.9,0,34.3,15.4,34.3,34.3v38.5c0,2.4,1.9,4.3,4.3,4.3s4.3-1.9,4.3-4.3v-38.5
			C560.6,121.6,541.4,102.4,517.8,102.4z"/>
		<path class="st0" d="M192.1,101.1c-14.3,0-27,6.9-35,17.5V69.3c0-2.4-1.9-4.3-4.3-4.3s-4.3,1.9-4.3,4.3v75.1
			c0,23.9,19.5,43.3,43.5,43.3s43.5-19.4,43.5-43.3S216.1,101.1,192.1,101.1z M192.1,179.1c-19.3,0-35-15.6-35-34.7
			s15.7-34.7,35-34.7s35,15.6,35,34.7S211.4,179.1,192.1,179.1z"/>
		<path class="st0" d="M290.7,140.2c-15.2-4.3-22.1-7.5-23-14.8c-0.4-3.1,0.4-5.7,2.4-8c3.5-4,10.5-6.4,18.3-6.4
			c8.9,0,16.8,2.9,21.9,8c1.7,1.7,4.4,1.7,6.1,0s1.7-4.4,0-6.1c-6.8-6.8-16.7-10.5-28-10.5c-10.3,0-19.5,3.5-24.7,9.3
			c-3.6,4.1-5.2,9.2-4.5,14.7c1.7,14.2,16.3,18.4,29.1,22.1c10.7,3,23.4,8.4,23.5,16.8c0,3.4-1,6.1-3.1,8.2
			c-3.7,3.7-10.9,5.9-19.7,5.9c-6.5,0-15.9-2.4-21.4-7.6c-1.7-1.7-4.4-1.6-6.1,0.1c-1.7,1.7-1.6,4.4,0.1,6.1
			c7.2,7,18.9,10.1,27.3,10.1c11.3,0,20.5-3,25.9-8.4c3.8-3.8,5.6-8.7,5.6-14.4C320.3,154.2,310.3,145.8,290.7,140.2z"/>
		<path class="st0" d="M767.9,140.4c-15.2-4.3-22.1-7.5-23-14.8c-0.4-3.1,0.4-5.7,2.4-8c3.5-4,10.5-6.4,18.3-6.4
			c8.9,0,16.8,2.9,21.9,8c1.7,1.7,4.4,1.7,6.1,0c1.7-1.7,1.7-4.4,0-6.1c-6.8-6.8-16.7-10.5-28-10.5c-10.3,0-19.5,3.5-24.7,9.3
			c-3.6,4.1-5.2,9.2-4.5,14.7c1.7,14.2,16.3,18.4,29.1,22.1c10.7,3,23.4,8.4,23.5,16.8c0,3.4-1,6.1-3.1,8.2
			c-3.7,3.7-10.9,5.9-19.7,5.9c-6.5,0-15.9-2.4-21.4-7.6c-1.7-1.7-4.4-1.6-6.1,0.1c-1.7,1.7-1.6,4.4,0.1,6.1
			c7.2,7,18.9,10.1,27.3,10.1c11.3,0,20.5-3,25.9-8.4c3.8-3.8,5.6-8.7,5.6-14.4C797.5,154.4,787.5,146,767.9,140.4z"/>
		<path class="st0" d="M385.3,180.5c-7.4,0-21.3-3.3-21.3-16v-54.2h20.5c2.4,0,4.3-1.9,4.3-4.3s-1.9-4.3-4.3-4.3H364V77.9
			c0-2.4-1.9-4.3-4.3-4.3s-4.3,1.9-4.3,4.3v23.8h-12.7c-2.4,0-4.3,1.9-4.3,4.3s1.9,4.3,4.3,4.3h12.7v54.2c0,6,2.5,12,7,16.4
			c3.8,3.8,10.8,8.2,22.9,8.2c2.4,0,4.3-1.9,4.3-4.3C389.5,182.4,387.6,180.5,385.3,180.5z"/>
		<path class="st0" d="M711.7,180.5c-7.4,0-21.3-3.3-21.3-16v-54.2h20.5c2.4,0,4.3-1.9,4.3-4.3s-1.9-4.3-4.3-4.3h-20.5V77.9
			c0-2.4-1.9-4.3-4.3-4.3c-2.4,0-4.3,1.9-4.3,4.3v23.8H669c-2.4,0-4.3,1.9-4.3,4.3s1.9,4.3,4.3,4.3h12.7v54.2c0,6,2.5,12,7,16.4
			c3.8,3.8,10.8,8.2,22.9,8.2c2.4,0,4.3-1.9,4.3-4.3C716,182.4,714,180.5,711.7,180.5z"/>
		<path class="st0" d="M456,102.4c-12.7,0-22.9,4.2-29.5,12.2c-7.1,8.5-8.5,18.9-8.5,26.2v44.1c0,2.4,1.9,4.3,4.3,4.3
			s4.3-1.9,4.3-4.3v-44.1c0-26.9,20.6-29.8,29.5-29.8c2.4,0,4.3-1.9,4.3-4.3C460.3,104.3,458.4,102.4,456,102.4z"/>
		<path class="st0" d="M620.2,111.2c8,0,15.8,2.8,21.9,7.8c1.8,1.5,4.5,1.3,6-0.6c1.5-1.8,1.3-4.5-0.6-6c-7.7-6.3-17.4-9.8-27.4-9.8
			c-23.6,0-42.9,19.1-42.9,42.6s19.2,42.6,42.9,42.6c10,0,19.7-3.5,27.4-9.8c1.8-1.5,2.1-4.2,0.6-6s-4.2-2.1-6-0.6
			c-6.1,5.1-13.9,7.8-21.9,7.8c-18.9,0-34.3-15.3-34.3-34S601.3,111.2,620.2,111.2z"/>
	</g>
</g>
</svg>
